<?xml version="1.0" encoding="UTF-8" standalone="no"?>
<!DOCTYPE svg PUBLIC "-//W3C//DTD SVG 1.1//EN" "http://www.w3.org/Graphics/SVG/1.1/DTD/svg11.dtd">
<svg width="100%" height="100%" viewBox="0 0 1024 1024" version="1.1" xmlns="http://www.w3.org/2000/svg" xmlns:xlink="http://www.w3.org/1999/xlink" xml:space="preserve" xmlns:serif="http://www.serif.com/" style="fill-rule:evenodd;clip-rule:evenodd;stroke-linejoin:round;stroke-miterlimit:2;">
    <g id="lazyterm-logo-selected.png" transform="matrix(1.894433,0,0,1.894433,-207.921051,-198.021001)">
        <path d="M624.942,441.484C628.092,525.553 609.276,592.158 478.52,601.777C435.146,604.967 303.982,606.2 260.569,599.165C234.412,594.926 143.362,585.622 135.339,474.513C132.407,433.9 138.638,417.924 135.246,415.999C130.855,413.508 119.568,409.46 112.184,390.624C103.044,367.308 120.302,333.204 153.503,333.223C160.312,333.227 158.985,330.657 161.742,324.605C219.085,198.707 325.364,198.009 329.625,191.588C331.38,188.943 346.829,158.985 382.432,148.294C407.274,140.833 437.781,146.399 413.413,173.424C410.325,176.848 398.767,188.607 402.619,189.099C405.582,189.477 504.735,190.535 570.113,275.795C591.384,303.536 600.582,332.315 602.592,333.204C605.317,334.409 619.474,329.3 636.912,345.066C656.62,362.883 655.896,401.086 625.646,415.813C621.652,417.757 624.163,419.228 624.942,441.484ZM311.509,557.117C500.719,562.971 526.449,546.862 548.901,528.981C595.401,491.949 583.553,405.413 564.103,371.73C515.355,287.308 424.041,321.902 361.489,317.712C315.301,314.617 225.03,297.788 187.427,382.463C173.488,413.852 162.698,494.659 209.111,529.988C223.916,541.257 246.35,554.026 311.509,557.117Z" style="fill:rgb(252,252,252);"/>
        <path d="M273.457,508.058C249.712,506.396 254.903,485.498 261.812,479.869C267.794,474.994 319.69,443 324.77,439.869C328.224,437.739 325.155,437.158 321.805,435.011C261.322,396.257 260.354,396.908 257.717,391.389C251.225,377.797 265.093,361.079 282.276,371.868C288.852,375.996 355.618,417.916 364.192,423.927C365.195,424.63 382.466,440.947 360.767,454.922C281.734,505.825 281.351,505.928 273.457,508.058Z" style="fill:rgb(251,251,252);"/>
        <path d="M463.5,492.899C494.429,492.882 503.986,490.67 505.583,504.496C505.781,506.209 505.073,517.338 492.5,517.365C440.003,517.48 439.775,518.115 435.634,516.229C428.841,513.134 427.104,504.891 429.783,499.656C433.99,491.435 440.912,492.886 463.5,492.899Z" style="fill:rgb(251,251,251);"/>
    </g>
</svg>
