<?xml version="1.0" encoding="UTF-8" standalone="no"?>
<!DOCTYPE svg PUBLIC "-//W3C//DTD SVG 1.1//EN" "http://www.w3.org/Graphics/SVG/1.1/DTD/svg11.dtd">
<svg width="100%" height="100%" viewBox="0 0 1024 1024" version="1.1" xmlns="http://www.w3.org/2000/svg" xmlns:xlink="http://www.w3.org/1999/xlink" xml:space="preserve" xmlns:serif="http://www.serif.com/" style="fill-rule:evenodd;clip-rule:evenodd;stroke-linejoin:round;stroke-miterlimit:2;">
    <path d="M-964.595,207.752C-938.076,160.292 -891.129,125.35 -834.465,115.566L-831.184,106.344C-821.597,88.128 -777.724,14.316 -659.071,2.156C-595.911,-4.317 -428.008,-5.254 -214.403,-7.476C-86.035,-26.41 127.846,-56.598 515.048,-85.639C534.608,-87.106 834.254,-116.78 1043.377,-126.728C1044.501,-126.781 1045.623,-126.834 1046.743,-126.885C1203.641,-145.632 1333.958,-155.946 1420.819,-148.707C1586.52,-134.899 1598.344,-3.852 1600.63,22.519C1603.135,51.424 1601.886,93.99 1577.212,134.715C1613.933,137.759 1650.855,141.126 1687.967,144.838C1806.751,156.716 1847.952,171.86 1857.336,176.129C1899.181,195.165 1919.287,219.834 1930.808,235.419L1956.13,282.688L1966.324,327.939L1961.584,390.985L1939.312,443.546C1925.675,465.528 1892.448,510.504 1823.919,526.65C1842.67,531.705 1857.136,537.485 1867.364,542.599L1931.016,594.686L1952.866,630.369L1967.138,674.851C1971.947,700.648 1989.604,812.643 1872.172,873.542C1927.191,911.66 1958.839,977.964 1950.564,1047.572C1939.84,1137.781 1865.235,1206.873 1774.47,1210.655C1293.289,1230.704 662.005,1141.058 60.653,1093.583C34.76,1091.539 -140.167,1076.935 -279.351,1062.898C-360.123,1069.703 -446.568,1076.955 -539.133,1084.687C-580.921,1088.65 -612.318,1091.287 -631.203,1092.281C-701.237,1095.967 -764.332,1060.199 -798.716,1004.276C-825.056,984.108 -845.768,957.048 -858.232,925.879C-858.238,925.877 -858.243,925.875 -858.248,925.874C-939.889,898.66 -975.49,844.925 -988.181,818.172C-1020.471,750.104 -1020.867,678.773 -955.891,608.343C-949.613,601.539 -939.034,591.04 -922.003,579.781C-979.697,578.62 -1020.74,577.666 -1039.8,577.114C-1351.332,568.095 -1121.82,208.127 -1049.834,206.55C-1045.582,206.456 -1018.716,206.789 -964.595,207.752Z"/>
    <g id="lazyterm-logo-selected.png" transform="matrix(1.600676,0,0,1.600676,-96.287729,-87.922812)">
        <path d="M624.942,441.484C628.092,525.553 609.276,592.158 478.52,601.777C435.146,604.967 303.982,606.2 260.569,599.165C234.412,594.926 143.362,585.622 135.339,474.513C132.407,433.9 138.638,417.924 135.246,415.999C130.855,413.508 119.568,409.46 112.184,390.624C103.044,367.308 120.302,333.204 153.503,333.223C160.312,333.227 158.985,330.657 161.742,324.605C219.085,198.707 325.364,198.009 329.625,191.588C331.38,188.943 346.829,158.985 382.432,148.294C407.274,140.833 437.781,146.399 413.413,173.424C410.325,176.848 398.767,188.607 402.619,189.099C405.582,189.477 504.735,190.535 570.113,275.795C591.384,303.536 600.582,332.315 602.592,333.204C605.317,334.409 619.474,329.3 636.912,345.066C656.62,362.883 655.896,401.086 625.646,415.813C621.652,417.757 624.163,419.228 624.942,441.484ZM311.509,557.117C500.719,562.971 526.449,546.862 548.901,528.981C595.401,491.949 583.553,405.413 564.103,371.73C515.355,287.308 424.041,321.902 361.489,317.712C315.301,314.617 225.03,297.788 187.427,382.463C173.488,413.852 162.698,494.659 209.111,529.988C223.916,541.257 246.35,554.026 311.509,557.117Z" style="fill:rgb(252,252,252);"/>
        <path d="M273.457,508.058C249.712,506.396 254.903,485.498 261.812,479.869C267.794,474.994 319.69,443 324.77,439.869C328.224,437.739 325.155,437.158 321.805,435.011C261.322,396.257 260.354,396.908 257.717,391.389C251.225,377.797 265.093,361.079 282.276,371.868C288.852,375.996 355.618,417.916 364.192,423.927C365.195,424.63 382.466,440.947 360.767,454.922C281.734,505.825 281.351,505.928 273.457,508.058Z" style="fill:rgb(251,251,252);"/>
        <path d="M463.5,492.899C494.429,492.882 503.986,490.67 505.583,504.496C505.781,506.209 505.073,517.338 492.5,517.365C440.003,517.48 439.775,518.115 435.634,516.229C428.841,513.134 427.104,504.891 429.783,499.656C433.99,491.435 440.912,492.886 463.5,492.899Z" style="fill:rgb(251,251,251);"/>
    </g>
</svg>
